<svg width="20" height="19" viewBox="0 0 20 19" fill="none" xmlns="http://www.w3.org/2000/svg">
<path id="Vector" d="M9.0709 0.615945C9.41464 -0.205316 10.5854 -0.205315 10.9291 0.615947L12.9579 5.46318C13.1029 5.8094 13.4306 6.04596 13.8067 6.07592L19.0727 6.49546C19.9649 6.56654 20.3267 7.673 19.6469 8.25165L15.6348 11.6669C15.3483 11.9109 15.223 12.2937 15.3106 12.6583L16.5364 17.7649C16.744 18.63 15.7969 19.3139 15.033 18.8503L10.5246 16.1138C10.2025 15.9183 9.79752 15.9183 9.4755 16.1138L4.967 18.8503C4.20312 19.3139 3.25596 18.63 3.46364 17.7649L4.68943 12.6583C4.77699 12.2937 4.65183 11.9109 4.36527 11.6669L0.353063 8.25165C-0.326719 7.673 0.035068 6.56654 0.927293 6.49546L6.19337 6.07592C6.56952 6.04596 6.89717 5.8094 7.04208 5.46318L9.0709 0.615945Z" fill="#111111"/>
</svg>
